<mxfile host="app.diagrams.net" modified="2022-07-27T02:47:22.170Z" agent="5.0 (Macintosh; Intel Mac OS X 10_15_7) AppleWebKit/605.1.15 (KHTML, like Gecko) Version/15.5 Safari/605.1.15" etag="xzwY5efui4FQq4i8aRs3" version="20.1.3" type="github">
  <diagram id="2FIOn2LTFlntteEEIcqe" name="第 1 页">
    <mxGraphModel dx="1426" dy="825" grid="1" gridSize="10" guides="1" tooltips="1" connect="1" arrows="1" fold="1" page="1" pageScale="1" pageWidth="827" pageHeight="1169" math="0" shadow="0">
      <root>
        <mxCell id="0" />
        <mxCell id="1" parent="0" />
        <mxCell id="KplV9bb-AN_4g3i1yIPd-1" value="" style="shape=ext;double=1;rounded=0;whiteSpace=wrap;html=1;fontSize=18;fillColor=#f5f5f5;fontColor=#333333;strokeColor=#666666;" vertex="1" parent="1">
          <mxGeometry x="80" y="110" width="570" height="940" as="geometry" />
        </mxCell>
        <mxCell id="KplV9bb-AN_4g3i1yIPd-2" value="RPC" style="text;strokeColor=none;fillColor=none;html=1;fontSize=24;fontStyle=1;verticalAlign=middle;align=center;" vertex="1" parent="1">
          <mxGeometry x="80" y="110" width="100" height="40" as="geometry" />
        </mxCell>
        <mxCell id="KplV9bb-AN_4g3i1yIPd-12" style="edgeStyle=orthogonalEdgeStyle;rounded=0;orthogonalLoop=1;jettySize=auto;html=1;exitX=0.5;exitY=1;exitDx=0;exitDy=0;fontSize=18;" edge="1" parent="1" source="KplV9bb-AN_4g3i1yIPd-3" target="KplV9bb-AN_4g3i1yIPd-4">
          <mxGeometry relative="1" as="geometry" />
        </mxCell>
        <mxCell id="KplV9bb-AN_4g3i1yIPd-3" value="ListSchedule" style="shape=ext;double=1;rounded=1;whiteSpace=wrap;html=1;fontSize=18;" vertex="1" parent="1">
          <mxGeometry x="220" y="160" width="120" height="80" as="geometry" />
        </mxCell>
        <mxCell id="KplV9bb-AN_4g3i1yIPd-13" style="edgeStyle=orthogonalEdgeStyle;rounded=0;orthogonalLoop=1;jettySize=auto;html=1;exitX=0.5;exitY=1;exitDx=0;exitDy=0;entryX=0.5;entryY=0;entryDx=0;entryDy=0;fontSize=18;" edge="1" parent="1" source="KplV9bb-AN_4g3i1yIPd-4" target="KplV9bb-AN_4g3i1yIPd-5">
          <mxGeometry relative="1" as="geometry" />
        </mxCell>
        <mxCell id="KplV9bb-AN_4g3i1yIPd-4" value="DB find" style="shape=ext;double=1;rounded=1;whiteSpace=wrap;html=1;fontSize=18;" vertex="1" parent="1">
          <mxGeometry x="220" y="270" width="120" height="80" as="geometry" />
        </mxCell>
        <mxCell id="KplV9bb-AN_4g3i1yIPd-14" style="edgeStyle=orthogonalEdgeStyle;rounded=0;orthogonalLoop=1;jettySize=auto;html=1;exitX=0.5;exitY=1;exitDx=0;exitDy=0;entryX=0.143;entryY=0.005;entryDx=0;entryDy=0;entryPerimeter=0;fontSize=18;" edge="1" parent="1" source="KplV9bb-AN_4g3i1yIPd-5" target="KplV9bb-AN_4g3i1yIPd-6">
          <mxGeometry relative="1" as="geometry" />
        </mxCell>
        <mxCell id="KplV9bb-AN_4g3i1yIPd-5" value="clusters" style="shape=ext;double=1;rounded=1;whiteSpace=wrap;html=1;fontSize=18;" vertex="1" parent="1">
          <mxGeometry x="220" y="380" width="120" height="80" as="geometry" />
        </mxCell>
        <mxCell id="KplV9bb-AN_4g3i1yIPd-17" style="edgeStyle=orthogonalEdgeStyle;rounded=0;orthogonalLoop=1;jettySize=auto;html=1;exitX=0.25;exitY=1;exitDx=0;exitDy=0;entryX=0.438;entryY=0;entryDx=0;entryDy=0;entryPerimeter=0;fontSize=18;" edge="1" parent="1" source="KplV9bb-AN_4g3i1yIPd-6" target="KplV9bb-AN_4g3i1yIPd-11">
          <mxGeometry relative="1" as="geometry" />
        </mxCell>
        <mxCell id="KplV9bb-AN_4g3i1yIPd-6" value="" style="shape=ext;double=1;whiteSpace=wrap;html=1;aspect=fixed;fontSize=18;" vertex="1" parent="1">
          <mxGeometry x="220" y="490" width="390" height="390" as="geometry" />
        </mxCell>
        <mxCell id="KplV9bb-AN_4g3i1yIPd-7" value="Search" style="text;strokeColor=none;fillColor=none;html=1;fontSize=24;fontStyle=1;verticalAlign=middle;align=center;" vertex="1" parent="1">
          <mxGeometry x="220" y="500" width="100" height="40" as="geometry" />
        </mxCell>
        <mxCell id="KplV9bb-AN_4g3i1yIPd-15" style="edgeStyle=orthogonalEdgeStyle;rounded=0;orthogonalLoop=1;jettySize=auto;html=1;exitX=0.5;exitY=1;exitDx=0;exitDy=0;fontSize=18;" edge="1" parent="1" source="KplV9bb-AN_4g3i1yIPd-8" target="KplV9bb-AN_4g3i1yIPd-9">
          <mxGeometry relative="1" as="geometry" />
        </mxCell>
        <mxCell id="KplV9bb-AN_4g3i1yIPd-8" value="fiter&lt;br&gt;检查安全规则中的域是否等于域" style="shape=ext;double=1;rounded=1;whiteSpace=wrap;html=1;fontSize=18;" vertex="1" parent="1">
          <mxGeometry x="240" y="550" width="160" height="80" as="geometry" />
        </mxCell>
        <mxCell id="KplV9bb-AN_4g3i1yIPd-16" style="edgeStyle=orthogonalEdgeStyle;rounded=0;orthogonalLoop=1;jettySize=auto;html=1;exitX=0.5;exitY=1;exitDx=0;exitDy=0;entryX=0.273;entryY=-0.012;entryDx=0;entryDy=0;entryPerimeter=0;fontSize=18;" edge="1" parent="1" source="KplV9bb-AN_4g3i1yIPd-9" target="KplV9bb-AN_4g3i1yIPd-10">
          <mxGeometry relative="1" as="geometry" />
        </mxCell>
        <mxCell id="KplV9bb-AN_4g3i1yIPd-9" value="sort&lt;br&gt;对cluster按照分数排序" style="shape=ext;double=1;rounded=1;whiteSpace=wrap;html=1;fontSize=18;" vertex="1" parent="1">
          <mxGeometry x="240" y="670" width="160" height="80" as="geometry" />
        </mxCell>
        <mxCell id="KplV9bb-AN_4g3i1yIPd-10" value="分数生成规则：权重* Domain/IDC/Location/NetTopology" style="shape=ext;double=1;rounded=1;whiteSpace=wrap;html=1;fontSize=18;" vertex="1" parent="1">
          <mxGeometry x="240" y="790" width="300" height="80" as="geometry" />
        </mxCell>
        <mxCell id="KplV9bb-AN_4g3i1yIPd-11" value="返回经过过滤和排序的clusters" style="shape=ext;double=1;rounded=1;whiteSpace=wrap;html=1;fontSize=18;" vertex="1" parent="1">
          <mxGeometry x="210" y="910" width="240" height="80" as="geometry" />
        </mxCell>
      </root>
    </mxGraphModel>
  </diagram>
</mxfile>
